<svg width="14" height="14" viewBox="0 0 14 14" fill="none" xmlns="http://www.w3.org/2000/svg">
<path d="M11.8398 3.1584C11.7901 3.1584 11.74 3.17762 11.7008 3.21684L7.44103 7.46764C7.19885 7.70912 6.80057 7.70912 6.55829 7.46694L2.29849 3.21694C2.25896 3.17741 2.20927 3.15882 2.15951 3.15921C2.10982 3.15952 2.06154 3.17741 2.02193 3.21694C1.94349 3.29569 1.94318 3.41506 2.02193 3.49342L6.28113 7.74482C6.48027 7.94365 6.73925 8.0413 7.00035 8.0413H7.00105C7.26113 8.04099 7.52011 7.94364 7.71855 7.7452L11.9784 3.493C12.0571 3.41425 12.0568 3.29488 11.9784 3.21652C11.9391 3.1773 11.8898 3.15808 11.8401 3.15808L11.8398 3.1584Z" fill="black"/>
</svg>
