<svg width="28" height="28" viewBox="0 0 28 28" fill="none" xmlns="http://www.w3.org/2000/svg">
<path fill-rule="evenodd" clip-rule="evenodd" d="M6.3996 3.71033H21.6004V10.1563C20.9804 9.87617 20.2595 9.71961 19.4835 9.65773V6.97837C19.4835 6.87352 19.4109 6.78274 19.3085 6.75977C18.9066 6.66993 18.5298 6.75993 18.1899 6.85712C17.8501 6.95399 17.5396 7.05681 17.2684 7.05681C16.9604 7.05681 16.6396 6.94181 16.2856 6.83759C15.9316 6.73321 15.5343 6.64243 15.1026 6.76274C15.0057 6.78977 14.9387 6.8779 14.9387 6.97837V9.62601H13.0616V6.97837H13.0615C13.0615 6.87352 12.9887 6.78259 12.8863 6.75977C12.4835 6.66993 12.1062 6.75993 11.7662 6.85712C11.4262 6.95415 11.1162 7.05681 10.8462 7.05681C10.537 7.05681 10.2157 6.94181 9.86182 6.83759C9.50791 6.73321 9.11118 6.64228 8.68026 6.76274C8.58354 6.78977 8.5165 6.8779 8.5165 6.97837V9.65821C7.74102 9.72071 7.0201 9.87805 6.39978 10.1588L6.3996 3.71033Z" fill="#484848"/>
<path fill-rule="evenodd" clip-rule="evenodd" d="M9.08597 7.15361C9.29472 7.15017 9.50549 7.19986 9.73505 7.26752C10.0688 7.36595 10.4319 7.50517 10.8461 7.50517C11.2213 7.50517 11.5653 7.38064 11.8889 7.2883C12.146 7.21502 12.3853 7.16158 12.6135 7.17392V9.6264H9.34313C9.21594 9.6264 9.08969 9.62859 8.96454 9.63296V7.16204C9.00501 7.1572 9.04547 7.15439 9.08595 7.15361L9.08597 7.15361Z" fill="#484848"/>
<path fill-rule="evenodd" clip-rule="evenodd" d="M15.5088 7.15361C15.7181 7.15017 15.9294 7.19986 16.1588 7.26752C16.4925 7.36595 16.8549 7.50517 17.2681 7.50517C17.6442 7.50517 17.9889 7.38064 18.3127 7.2883C18.5695 7.21502 18.8083 7.16173 19.0355 7.17392V9.63268C18.9125 9.62846 18.7886 9.62643 18.6636 9.62643H15.3865V7.16223C15.4273 7.15723 15.4679 7.15442 15.5087 7.15379L15.5088 7.15361Z" fill="#484848"/>
<path fill-rule="evenodd" clip-rule="evenodd" d="M9.34318 10.0744H18.664C19.9448 10.0744 21.0909 10.3048 21.8951 10.8239C22.6494 11.3109 23.123 12.0341 23.1788 13.1408H4.82202C4.87796 12.0342 5.35342 11.3111 6.10982 10.8239C6.91606 10.3047 8.06402 10.0742 9.34358 10.0742L9.34318 10.0744Z" fill="#484848"/>
<path fill-rule="evenodd" clip-rule="evenodd" d="M4.81598 13.5888H23.184V17.2019H4.81598V13.5888Z" fill="#484848"/>
<path fill-rule="evenodd" clip-rule="evenodd" d="M6.13636 17.7156C6.07667 17.7148 6.01932 17.7657 5.97698 17.8571C5.93464 17.9486 5.91089 18.0729 5.91089 18.2026C5.91089 18.3323 5.93464 18.4567 5.97698 18.5481C6.01932 18.6395 6.07667 18.6904 6.13636 18.6896H8.37636H8.3762C8.43589 18.6904 8.49323 18.6395 8.53558 18.5481C8.57792 18.4567 8.60167 18.3323 8.60167 18.2026C8.60167 18.0729 8.57792 17.9486 8.53558 17.8571C8.49323 17.7657 8.43589 17.7148 8.3762 17.7156H6.1362H6.13636Z" fill="#484848"/>
<path fill-rule="evenodd" clip-rule="evenodd" d="M19.6236 17.7156C19.5639 17.7148 19.5066 17.7657 19.4642 17.8571C19.4219 17.9486 19.3981 18.0729 19.3981 18.2026C19.3981 18.3323 19.4219 18.4567 19.4642 18.5481C19.5066 18.6395 19.5639 18.6904 19.6236 18.6896H21.8636C21.9231 18.6904 21.9805 18.6395 22.0228 18.5481C22.0652 18.4567 22.0889 18.3323 22.0889 18.2026C22.0889 18.0729 22.0652 17.9486 22.0228 17.8571C21.9805 17.7657 21.9231 17.7148 21.8636 17.7156H19.6236Z" fill="#484848"/>
</svg>
