<svg width="30" height="30" viewBox="0 0 30 30" fill="none" xmlns="http://www.w3.org/2000/svg">
<path d="M22.0063 17.9224C21.9967 17.8255 21.9487 17.7364 21.8724 17.6755L14.1036 11.3836L20.3912 3.59478C20.4527 3.51944 20.4813 3.42268 20.4709 3.32592C20.46 3.22949 20.4116 3.14093 20.336 3.07999L18.3018 1.43787C18.1446 1.31098 17.9142 1.33609 17.7875 1.49278L9.65918 11.5608C9.62302 11.6056 9.6021 11.6582 9.59038 11.714C9.53781 11.8569 9.57447 12.0223 9.69903 12.1236L16.1019 17.317H8.3576C8.15554 17.317 7.99164 17.4813 7.99164 17.683V20.2978C7.99164 20.5004 8.15553 20.6638 8.3576 20.6638H21.6257C21.8281 20.6638 21.9922 20.5 21.9922 20.2978V18.0655C22.0061 18.0193 22.0115 17.9711 22.0061 17.9224L22.0063 17.9224ZM12.3784 13.3543L13.5629 11.8869L14.2951 12.4804L13.7194 13.2005C13.6832 13.2457 13.6908 13.3116 13.7355 13.3476C13.7549 13.3625 13.778 13.3707 13.8007 13.3707C13.8315 13.3707 13.8615 13.3565 13.8826 13.3314L14.4578 12.6124L14.9042 12.9738L14.6212 13.3274C14.5854 13.3726 14.5926 13.439 14.6373 13.4745C14.6567 13.4894 14.6798 13.4976 14.7026 13.4976C14.7334 13.4976 14.764 13.4834 14.7845 13.4583L15.0664 13.1057L15.5125 13.4667L15.2326 13.8169C15.1971 13.8623 15.204 13.928 15.2488 13.964C15.2681 13.9789 15.291 13.9875 15.3141 13.9875C15.3446 13.9875 15.3754 13.9732 15.3957 13.9476L15.6746 13.5989L16.1207 13.9604L15.554 14.6695C15.5182 14.7147 15.5254 14.7807 15.5701 14.8167C15.5895 14.8321 15.6126 14.8393 15.6354 14.8393C15.6662 14.8393 15.6968 14.826 15.7172 14.8004L16.2834 14.0921L16.7302 14.4536L16.4559 14.7963C16.4197 14.8415 16.4272 14.9074 16.4721 14.9434C16.4914 14.9588 16.5143 14.966 16.5374 14.966C16.5679 14.966 16.5982 14.9528 16.6189 14.9272L16.8923 14.585L17.3384 14.9469L17.0672 15.2858C17.0311 15.331 17.0386 15.3974 17.0835 15.4329C17.1029 15.4478 17.126 15.456 17.1488 15.456C17.1796 15.456 17.2095 15.4418 17.2303 15.4167L17.5005 15.0787L17.9468 15.4401L17.4411 16.0726C17.4056 16.1178 17.4124 16.1833 17.4573 16.2198C17.4767 16.2347 17.5003 16.2424 17.5226 16.2424C17.5534 16.2424 17.5839 16.2286 17.6044 16.2035L18.1089 15.5721L18.5557 15.9335L18.2907 16.2655C18.2552 16.3108 18.2621 16.3761 18.3069 16.4121C18.3263 16.4275 18.3495 16.4352 18.3722 16.4352C18.403 16.4352 18.4335 16.422 18.4537 16.3959L18.7184 16.0659L19.1646 16.4274L18.9021 16.755C18.8666 16.8002 18.8734 16.8662 18.9183 16.9021C18.9377 16.9175 18.9608 16.9247 18.9836 16.9247C19.0144 16.9247 19.0449 16.9115 19.0655 16.8859L19.3268 16.5593L21.1229 18.0139L19.9236 19.4779L12.3784 13.3543ZM18.1264 2.23756L19.5911 3.41982L19.1989 3.90599L18.7035 3.51509C18.6583 3.47926 18.5922 3.4873 18.5563 3.53233C18.5208 3.5777 18.529 3.64349 18.5736 3.67948L19.0669 4.06905L18.7065 4.51588L17.8536 3.84272C17.8084 3.80689 17.7422 3.81493 17.7067 3.85996C17.6709 3.90533 17.6791 3.97112 17.724 4.00712L18.5753 4.6786L18.214 5.12543L17.733 4.74574C17.6876 4.70992 17.6217 4.71795 17.5858 4.76299C17.5504 4.80835 17.5586 4.87432 17.6031 4.91014L18.0826 5.28832L17.7216 5.73515L17.2477 5.36082C17.2018 5.32499 17.1364 5.33303 17.1005 5.37806C17.065 5.42343 17.0727 5.48939 17.1181 5.52521L17.5904 5.8982L17.2295 6.34503L16.3969 5.68863C16.3515 5.65314 16.2856 5.66101 16.2498 5.70588C16.2143 5.75124 16.2225 5.81721 16.267 5.85303L17.0982 6.50793L16.7369 6.95476L16.2769 6.59164C16.2315 6.55565 16.1651 6.56335 16.1303 6.60872C16.0943 6.65409 16.1016 6.71954 16.147 6.75537L16.606 7.11748L16.2451 7.56431L15.7918 7.20722C15.7459 7.1714 15.6809 7.1796 15.6446 7.22447C15.6091 7.26933 15.617 7.3358 15.6618 7.37162L16.1145 7.72804L15.7532 8.17435L15.0082 7.58657C14.9624 7.55124 14.8969 7.55844 14.8614 7.60381C14.8256 7.64918 14.8333 7.71447 14.8787 7.75096L15.6222 8.33772L15.2612 8.78403L14.8216 8.43716C14.7762 8.40133 14.7103 8.40903 14.6744 8.4544C14.6389 8.49977 14.6471 8.56523 14.6917 8.60155L15.13 8.94709L14.7687 9.3934L14.3363 9.05206C14.2904 9.01673 14.2249 9.02393 14.1891 9.0693C14.1536 9.11467 14.161 9.18063 14.2064 9.21645L14.6375 9.55647L14.2765 10.0031L13.5518 9.43175C13.5066 9.39626 13.4415 9.40413 13.4047 9.44899C13.3692 9.4942 13.3774 9.55982 13.4222 9.59615L14.1453 10.1658L13.7845 10.6127L13.3655 10.2822C13.3201 10.2467 13.2542 10.2549 13.2183 10.2995C13.1828 10.3447 13.1902 10.4103 13.2356 10.4466L13.6528 10.7754L13.3045 11.207C13.3 11.2125 13.2995 11.2195 13.2955 11.2251L12.88 10.8973C12.834 10.8614 12.7692 10.8696 12.7328 10.9145C12.6973 10.9604 12.7052 11.0258 12.7501 11.0613L13.2282 11.4382C13.2282 11.4494 13.2243 11.4603 13.2255 11.471L12.0048 12.9842L10.4743 11.7489L11.8608 10.0396C11.8889 10.0048 11.9074 9.96498 11.9206 9.92513L18.1264 2.23756ZM8.724 18.0488H17.0049L19.3254 19.9314H18.8248V19.622C18.8248 19.5649 18.7779 19.5174 18.7202 19.5174C18.6624 19.5174 18.6154 19.5646 18.6154 19.622V19.9314H18.0413L18.0411 19.157C18.0411 19.0999 17.9942 19.0528 17.936 19.0528C17.8789 19.0528 17.8319 19.0997 17.8319 19.157V19.9314H17.2571V19.622C17.2571 19.5649 17.2103 19.5174 17.1525 19.5174C17.0948 19.5174 17.0477 19.5646 17.0477 19.622V19.9314H16.4732V19.622C16.4732 19.5649 16.4261 19.5174 16.3687 19.5174C16.3106 19.5174 16.2636 19.5646 16.2636 19.622V19.9314H15.6895L15.6893 19.157C15.6893 19.0999 15.6425 19.0528 15.5847 19.0528C15.5269 19.0528 15.4799 19.0997 15.4799 19.157V19.9314H14.9058V19.622C14.9058 19.5649 14.8588 19.5174 14.8007 19.5174C14.7436 19.5174 14.6962 19.5646 14.6962 19.622V19.9314H14.1217V19.622C14.1217 19.5649 14.0748 19.5174 14.0169 19.5174C13.9593 19.5174 13.9123 19.5646 13.9123 19.622V19.9314H13.3375V19.2418C13.3375 19.1842 13.2907 19.1372 13.2334 19.1372C13.1753 19.1372 13.1283 19.1841 13.1283 19.2418V19.9314H12.5542V19.622C12.5542 19.5649 12.5073 19.5174 12.4494 19.5174C12.3918 19.5174 12.3448 19.5646 12.3448 19.622V19.9314H11.7707V19.622C11.7707 19.5649 11.7237 19.5174 11.6656 19.5174C11.6085 19.5174 11.5611 19.5646 11.5611 19.622V19.9314H10.9866V19.2418C10.9866 19.1842 10.9395 19.1372 10.8818 19.1372C10.8242 19.1372 10.7771 19.1841 10.7771 19.2418V19.9314H10.2026V19.622C10.2026 19.5649 10.1557 19.5174 10.0985 19.5174C10.0402 19.5174 9.99333 19.5646 9.99333 19.622V19.9314H9.41926V19.622C9.41926 19.5649 9.37222 19.5174 9.31446 19.5174C9.25687 19.5174 9.20983 19.5646 9.20983 19.622V19.9314H8.72182L8.72131 18.0488H8.724ZM20.4999 19.9314L21.2599 19.0043V19.9314H20.4999Z" fill="#484848"/>
<path d="M11.8882 10.8073C11.5609 10.8073 11.2947 11.0728 11.2947 11.4002C11.2947 11.7273 11.5609 11.993 11.8882 11.993C12.2151 11.993 12.4811 11.7275 12.4811 11.4002C12.4811 11.0728 12.2151 10.8073 11.8882 10.8073ZM11.8882 11.7836C11.6762 11.7836 11.5041 11.612 11.5041 11.4C11.5041 11.1879 11.6762 11.0163 11.8882 11.0163C12.0996 11.0163 12.2717 11.1879 12.2717 11.4C12.2717 11.612 12.0996 11.7836 11.8882 11.7836Z" fill="#484848"/>
<path d="M20.4352 18.1813C20.4352 17.8546 20.17 17.5886 19.8424 17.5886C19.5147 17.5886 19.2494 17.8543 19.2494 18.1813C19.2494 18.5089 19.5149 18.7747 19.8424 18.7747C20.17 18.7747 20.4352 18.5089 20.4352 18.1813ZM19.8424 18.5655C19.6303 18.5655 19.4587 18.3934 19.4587 18.1809C19.4587 17.9695 19.6303 17.7974 19.8424 17.7974C20.0543 17.7974 20.2259 17.9695 20.2259 18.1809C20.2257 18.3937 20.0543 18.5655 19.8424 18.5655Z" fill="#484848"/>
</svg>
