<svg width="26" height="29" viewBox="0 0 26 29" fill="none" xmlns="http://www.w3.org/2000/svg">
<path d="M0.274003 15.803C0.274003 9.05864 5.49246 3.51978 12.1386 3.00292V2.14129H9.75095C9.18483 2.14129 8.74167 1.69832 8.74167 1.132C8.74167 0.565879 9.18484 0.122925 9.75095 0.122925H16.3971C16.9632 0.122925 17.4063 0.565895 17.4063 1.132C17.4063 1.69834 16.9632 2.14129 16.3971 2.14129H14.1571V3.00292C16.6186 3.1998 18.8586 4.06122 20.7292 5.43976L21.8369 4.33204L21.3692 3.86436C20.9754 3.47062 20.9754 2.83055 21.3692 2.4366C21.7631 2.04286 22.403 2.04286 22.7969 2.4366L25.1354 4.77521C25.5293 5.16896 25.5293 5.80903 25.1354 6.20297C24.9385 6.39985 24.6924 6.49829 24.4216 6.49829C24.1508 6.49829 23.9047 6.39985 23.7078 6.20297L23.2399 5.73509L22.2308 6.74438C24.5447 9.05825 25.9723 12.2827 25.9723 15.803C25.9723 22.8924 20.2123 28.6524 13.1234 28.6524C6.03393 28.6524 0.273926 22.8924 0.273926 15.803L0.274003 15.803ZM13.1234 4.97212C7.14177 4.97212 2.26789 9.82127 2.26789 15.8277C2.26789 21.8093 7.14177 26.6827 13.1234 26.6827C19.1046 26.6827 23.9785 21.809 23.9785 15.8277C23.9785 9.84601 19.1046 4.97212 13.1234 4.97212ZM13.1234 16.6397C12.5571 16.6397 12.1141 16.1968 12.1141 15.6551V9.42764C12.1141 8.86151 12.5571 8.41835 13.1234 8.41835C13.6896 8.41835 14.1325 8.86152 14.1325 9.42764V14.6214H17.431C17.9973 14.6214 18.4403 15.0644 18.4403 15.6305C18.4403 16.1968 17.9973 16.6398 17.431 16.6398L13.1234 16.6397Z" fill="#C7C7C7"/>
</svg>
