<svg width="56" height="56" viewBox="0 0 56 56" fill="none" xmlns="http://www.w3.org/2000/svg">
<path d="M43.3432 30.212C43.061 29.8452 42.535 29.7767 42.1681 30.0589L28.0201 40.9421L14.5241 35.6293C14.0266 34.3768 14.1329 33.2475 14.3401 32.4934L26.9969 37.5762C27.165 37.6437 27.3416 37.6768 27.5172 37.6768C27.8197 37.6768 28.1194 37.5784 28.3672 37.3884L41.7776 27.1044C42.1795 26.7963 42.3829 26.2944 42.3095 25.7931C42.2357 25.2919 41.8963 24.87 41.4226 24.6903L33.5004 21.6875C33.2811 22.1284 33.0526 22.5769 32.8139 23.0344C31.7011 25.1634 30.6023 27.0225 29.8763 28.2069C29.4454 28.9103 29.1076 29.4387 28.9007 29.7581C28.7642 29.9681 28.6726 30.1063 28.6192 30.1853C28.4795 30.3931 28.2679 30.7072 27.8092 30.7238L27.7929 30.7244H27.7767C27.2989 30.7244 27.0808 30.4019 26.9364 30.1888C26.8829 30.11 26.7911 29.9725 26.6561 29.7656C26.4479 29.4472 26.1101 28.9216 25.6808 28.2253C25.0002 27.1219 23.9926 25.4297 22.9542 23.4781L13.8958 30.0053C13.7414 30.1166 13.6143 30.2563 13.5186 30.4134C13.4136 30.5213 13.3414 30.6322 13.2989 30.6981C12.6771 31.6609 11.9333 33.9753 13.0911 36.5431C13.1449 36.6618 13.2233 36.7618 13.3171 36.8406C13.4049 36.9481 13.5202 37.0356 13.6586 37.0903L27.8482 42.6762C27.8535 42.6784 27.8588 42.6796 27.8638 42.6815C27.8751 42.6859 27.8867 42.6893 27.8982 42.6931C27.9163 42.699 27.9345 42.704 27.9526 42.7087C27.962 42.7112 27.9714 42.7134 27.9807 42.7153C28.0035 42.7203 28.0264 42.724 28.0492 42.7268C28.0548 42.7278 28.0604 42.7287 28.066 42.7293C28.0957 42.7325 28.1251 42.7346 28.1548 42.7346C28.1985 42.7346 28.2417 42.7309 28.2842 42.724C28.2989 42.7215 28.3132 42.7171 28.3276 42.714C28.3551 42.7081 28.3823 42.7025 28.4088 42.694C28.4263 42.6884 28.4432 42.6809 28.4601 42.674C28.4839 42.6646 28.5076 42.6553 28.5301 42.644C28.546 42.6359 28.5613 42.6265 28.577 42.6175C28.6004 42.6037 28.6235 42.589 28.646 42.5731C28.6526 42.5684 28.6595 42.5653 28.6657 42.5606L43.1897 31.3886C43.5566 31.1061 43.625 30.5799 43.3429 30.213L43.3432 30.212Z" fill="#C7C7C7"/>
<path d="M27.776 29.8296C27.796 29.829 30.3594 25.9843 32.6597 21.368C34.5373 17.6005 36.2388 13.3192 36.2388 10.1936C36.2388 5.51984 32.4501 1.7312 27.7756 1.7312C23.1018 1.7312 19.3132 5.51992 19.3132 10.1936C19.3132 13.8118 21.5235 18.872 23.6848 22.9496C25.7451 26.8362 27.7604 29.8296 27.7757 29.8296H27.776ZM21.0957 10.18C21.0957 6.46624 24.106 3.45592 27.8197 3.45592C31.5335 3.45592 34.5441 6.46624 34.5441 10.18C34.5441 13.8938 31.5335 16.9041 27.8197 16.9041C24.106 16.9041 21.0957 13.8934 21.0957 10.18Z" fill="#C7C7C7"/>
<path d="M27.3344 10.5688V13.1835C26.7491 13.1454 26.4985 12.9444 26.4985 11.8872H25.6401C25.6401 13.6963 26.5141 13.9928 27.3345 14.041V14.836H28.1929V14.036C28.8066 13.9882 29.2329 13.8291 29.5147 13.546C29.9313 13.1272 29.9291 12.5629 29.9266 12.017L29.9263 11.8882C29.9263 11.8379 29.9266 11.7882 29.9269 11.7388C29.93 11.201 29.9338 10.6447 29.5216 10.2301C29.24 9.94667 28.8119 9.78792 28.1925 9.74042V7.1229C28.7941 7.15727 29.0512 7.34977 29.0512 8.42042H29.9096C29.9096 6.59482 29.0193 6.30978 28.1924 6.26514V5.56201H27.334V6.27732C25.5975 6.4342 25.5965 7.57324 25.5965 8.42204V8.44423C25.5965 8.95423 25.5965 9.48143 25.8909 9.90207C26.1656 10.2946 26.63 10.5099 27.3343 10.5689L27.3344 10.5688ZM28.9125 10.8356C29.0654 10.9894 29.0713 11.2772 29.0685 11.734C29.0682 11.785 29.0675 11.8368 29.0675 11.889L29.0678 12.0215C29.07 12.4887 29.0632 12.7828 28.906 12.9409C28.7853 13.0618 28.5416 13.1412 28.1922 13.1749V10.6021C28.626 10.6434 28.8238 10.7459 28.9125 10.8356L28.9125 10.8356ZM26.455 8.42251C26.455 7.61347 26.455 7.21971 27.3344 7.13499V9.70779C26.9531 9.66779 26.7047 9.5681 26.5944 9.40997C26.4553 9.21122 26.4553 8.85591 26.4553 8.44469L26.455 8.42251Z" fill="#C7C7C7"/>
</svg>
