<svg width="24" height="30" viewBox="0 0 24 30" fill="none" xmlns="http://www.w3.org/2000/svg">
<path d="M21.6 10.2C21.6 4.89798 17.302 0.599976 12 0.599976C6.69804 0.599976 2.40004 4.89798 2.40004 10.2C2.40004 12.5719 3.2621 14.7415 4.68776 16.4165L0.260498 25.9103L4.56181 26.1507L7.5109 29.2911L11.9377 19.7979C11.9585 19.7979 11.9792 19.7995 12 19.7995C12.0207 19.7995 12.0415 19.7979 12.0625 19.7979L16.4893 29.2911L19.4384 26.1507L23.7397 25.9103L19.3122 16.4165C20.7379 14.7413 21.6 12.5717 21.6 10.2H21.6ZM7.05947 26.4737L5.29027 24.5893L2.70947 24.4449L5.89673 17.61C7.12707 18.6248 8.61547 19.3361 10.2474 19.6373L7.05947 26.4737ZM11.9999 17.4C8.02958 17.4 4.79987 14.1703 4.79987 10.2C4.79987 6.22969 8.02958 2.99998 11.9999 2.99998C15.9702 2.99998 19.1999 6.22969 19.1999 10.2C19.1999 14.1703 15.9702 17.4 11.9999 17.4ZM21.2907 24.4451L18.7099 24.5895L16.9407 26.4739L13.7528 19.6379C15.3847 19.3368 16.8731 18.6252 18.1035 17.6107L21.2907 24.4451Z" fill="#C7C7C7"/>
</svg>
