<svg width="50" height="50" viewBox="0 0 50 50" fill="none" xmlns="http://www.w3.org/2000/svg">
<path d="M25 35.625C25 34.5625 24.1875 33.75 23.125 33.75H8.125C7.0625 33.75 6.25 34.5625 6.25 35.625V38.75H25V35.625ZM23.75 37.5H7.5V35.625C7.5 35.25 7.75 35 8.125 35H23.125C23.5 35 23.75 35.25 23.75 35.625V37.5Z" fill="#C7C7C7"/>
<path d="M22.5 33.125V32.5C22.5 31.4375 21.6875 30.625 20.625 30.625H10.625C9.5625 30.625 8.75 31.4375 8.75 32.5V33.125H10V32.5C10 32.125 10.25 31.875 10.625 31.875H20.625C21 31.875 21.25 32.125 21.25 32.5V33.125H22.5Z" fill="#C7C7C7"/>
<path d="M22.5 28.75H25V30H22.5V28.75Z" fill="#C7C7C7"/>
<path d="M6.875 28.75H9.375V30H6.875V28.75Z" fill="#C7C7C7"/>
<path d="M8.31714 24.8264L9.20107 23.9425L11.0571 25.7985L10.1731 26.6824L8.31714 24.8264Z" fill="#C7C7C7"/>
<path d="M30 4.375V10.3125L34.625 13.625L35.375 12.625L31.25 9.6875V4.375H30Z" fill="#C7C7C7"/>
<path d="M20.1921 26.4236L22.0481 24.5676L22.9321 25.4516L21.0761 27.3076L20.1921 26.4236Z" fill="#C7C7C7"/>
<path d="M31.3129 26.4371C31.4379 26.3121 31.5629 26.2496 31.7504 26.2496H34.4379C34.6254 26.2496 34.7504 26.3121 34.8754 26.4371L43.2504 34.8121L44.1254 33.9371L35.8125 25.5621C35.4375 25.1871 35 24.9996 34.5 24.9996H32.75L25.5629 17.8125L27.7504 15.625H29.0004L30.0004 14.625C30.5004 14.125 30.5004 13.375 30.0004 12.875L24.6254 7.5C24.1254 7 23.3754 7 22.8754 7.5L21.8754 8.5V9.75L12.8754 18.75H11.6254L10.6254 19.75C10.1254 20.25 10.1254 21 10.6254 21.5L16.0004 26.875C16.5004 27.375 17.2504 27.375 17.7504 26.875L18.7504 25.875V24.625L22.1879 21.1875L28.5004 27.5L28.1254 27.8125C27.1254 28.8125 27.1254 30.5 28.1254 31.5L28.3129 31.6875L34.3129 37.125C35.0629 37.8125 36.1879 37.75 36.8754 37.0625L37.6254 36.3125C37.8754 36.0625 38.2504 36.0625 38.5004 36.3125L41.3754 39.1875L42.2504 38.3125L39.3754 35.4375C38.6254 34.6875 37.4379 34.6875 36.7504 35.4375L36.0004 36.1875C35.7504 36.4375 35.3754 36.4375 35.1254 36.1875L34.8754 35.9375L36.0629 34.75L35.1879 33.875L34.0004 35.0625L32.9379 34.125L34.1879 32.875L33.3129 32L32.0004 33.3125L30.6879 32.125C31.1254 32 31.5004 31.8125 31.8129 31.5L32.6254 30.6875C32.8754 30.4375 33.2504 30.4375 33.5004 30.6875L34.7504 31.9375C35.1254 32.3125 35.5629 32.5 36.0629 32.5H38.1254V31.25H36.1254C35.9379 31.25 35.8129 31.1875 35.6879 31.0625L34.4379 29.8125C33.6879 29.0625 32.5004 29.0625 31.8129 29.8125L30.9379 30.625C30.3754 31.1875 29.5629 31.1875 29.0004 30.625C28.4379 30.0625 28.4379 29.25 29.0004 28.6875L31.3129 26.4371ZM23.75 8.37429L29.125 13.7493L28.5 14.3743H27.75L23.125 9.74929V8.99929L23.75 8.37429ZM22.5 10.8743L26.625 14.9993L18.125 23.4993L14 19.3743L22.5 10.8743ZM16.875 25.9993L11.5 20.6243L12.125 19.9993H12.875L17.5 24.6243V25.3743L16.875 25.9993ZM23.0625 20.3118L24.6875 18.6868L31.125 25.1243C30.875 25.1868 30.625 25.3743 30.4375 25.5618L29.375 26.6243L23.0625 20.3118Z" fill="#C7C7C7"/>
<path d="M27.25 18.0629C31.6875 19.9379 36.8128 17.8129 38.6871 13.3754C40.5614 8.93789 38.4371 3.75039 33.9996 1.93824C30.3746 0.438244 26.1246 1.50074 23.7496 4.62574L24.7496 5.37574C27.3121 2.12574 31.9996 1.56324 35.2496 4.06324C38.4996 6.56324 39.0621 11.3132 36.5621 14.5632C34.4996 17.1882 30.8746 18.1882 27.7493 16.8757L27.25 18.0629Z" fill="#C7C7C7"/>
</svg>
